<svg width="20.000000" height="20.000000" viewBox="0 0 20 20" fill="none" xmlns="http://www.w3.org/2000/svg" xmlns:xlink="http://www.w3.org/1999/xlink">
	<desc>
			Created with Pixso.
	</desc>
	<defs/>
	<g opacity="0.720000" style="mix-blend-mode:normal"/>
	<g opacity="0.400000" style="mix-blend-mode:normal">
		<path id="Vector" d="M13.49 1.66L6.51 1.66C3.48 1.66 1.67 3.47 1.67 6.5L1.67 13.48C1.67 16.51 3.48 18.32 6.51 18.32L13.49 18.32C16.52 18.32 18.33 16.51 18.33 13.48L18.33 6.5C18.33 3.47 16.52 1.66 13.49 1.66L13.49 1.66Z" fill="#7C8DB5" fill-opacity="0.720000" fill-rule="nonzero"/>
	</g>
	<path id="Vector" d="M13.01 5.91L11.1 5.28C10.62 5.11 10.13 5.18 9.75 5.44C9.38 5.71 9.17 6.16 9.17 6.67L9.17 7.18L9.17 10.66C8.84 10.48 8.46 10.37 8.05 10.37C6.77 10.37 5.72 11.42 5.72 12.7C5.72 13.99 6.77 15.04 8.05 15.04C9.34 15.04 10.39 13.99 10.39 12.7L10.39 8.91C10.39 8.92 10.41 8.92 10.42 8.93L12.33 9.56C12.5 9.62 12.69 9.65 12.86 9.65C13.16 9.65 13.45 9.57 13.68 9.39C14.05 9.13 14.26 8.68 14.26 8.17L14.26 7.66C14.26 6.9 13.73 6.15 13.01 5.91L13.01 5.91M8.05 13.82C7.44 13.82 6.94 13.32 6.94 12.71C6.94 12.1 7.44 11.6 8.05 11.6C8.67 11.6 9.17 12.1 9.17 12.71C9.17 13.32 8.67 13.82 8.05 13.82L8.05 13.82Z" fill="#FFFFFF" fill-opacity="1.000000" fill-rule="nonzero"/>
</svg>
