<svg width="16.666748" height="15.833336" viewBox="0 0 16.6667 15.8333" fill="none" xmlns="http://www.w3.org/2000/svg" xmlns:xlink="http://www.w3.org/1999/xlink">
	<desc>
			Created with Pixso.
	</desc>
	<defs/>
	<g opacity="0.400000" style="mix-blend-mode:normal">
		<path id="Path_34179" d="M8.14 15.69C6.24 14.52 4.47 13.13 2.87 11.56C1.74 10.44 0.87 9.07 0.34 7.56C-0.61 4.61 0.5 1.24 3.58 0.24C5.21 -0.28 6.97 0.04 8.33 1.08L8.33 1.08C9.69 0.04 11.46 -0.27 13.09 0.24C16.17 1.24 17.28 4.61 16.33 7.56C15.81 9.07 14.95 10.44 13.82 11.56C12.22 13.13 10.45 14.52 8.55 15.69L8.34 15.83L8.14 15.69Z" fill="#B9C0DE" fill-opacity="1.000000" fill-rule="nonzero"/>
	</g>
	<path id="Path_34178" d="M8.34 15.83L8.14 15.69C6.24 14.52 4.47 13.13 2.86 11.56C1.72 10.44 0.86 9.07 0.32 7.56C-0.62 4.61 0.48 1.24 3.56 0.24C5.19 -0.28 6.98 0.04 8.34 1.09L8.34 15.83Z" fill="#7C8DB5" fill-opacity="0.720000" fill-rule="nonzero"/>
	<path id="Path_34180" d="M13.52 5.83L13.52 5.83C13.35 5.82 13.2 5.73 13.09 5.6C12.98 5.46 12.93 5.28 12.95 5.1L12.95 5.1C12.97 4.52 12.64 3.99 12.12 3.78C11.8 3.69 11.6 3.34 11.68 2.99C11.76 2.65 12.08 2.43 12.4 2.51C12.44 2.52 12.48 2.53 12.52 2.55C13.55 2.95 14.21 4.02 14.16 5.18C14.16 5.36 14.09 5.53 13.97 5.65C13.85 5.77 13.69 5.84 13.52 5.83L13.52 5.83Z" fill="#FFFFFF" fill-opacity="1.000000" fill-rule="nonzero"/>
</svg>
