<svg width="16.952515" height="16.666687" viewBox="0 0 16.9525 16.6667" fill="none" xmlns="http://www.w3.org/2000/svg" xmlns:xlink="http://www.w3.org/1999/xlink">
	<desc>
			Created with Pixso.
	</desc>
	<defs>
		<linearGradient x1="8.476254" y1="-8.333342" x2="-8.476254" y2="8.333342" id="paint_linear_8_57_0" gradientUnits="userSpaceOnUse">
			<stop stop-color="#FF7E3A"/>
			<stop offset="1.000000" stop-color="#FF9A45"/>
		</linearGradient>
	</defs>
	<path id="Vector" d="M15.83 5L10.37 0.64C9.3 -0.21 7.64 -0.22 6.58 0.63L1.12 5C0.34 5.63 -0.14 6.88 0.03 7.86L1.08 14.15C1.32 15.55 2.63 16.66 4.05 16.66L12.89 16.66C14.29 16.66 15.63 15.53 15.87 14.14L16.92 7.85C17.07 6.88 16.59 5.63 15.83 5L15.83 5M9.09 13.33C9.09 13.67 8.81 13.95 8.47 13.95C8.13 13.95 7.84 13.67 7.84 13.33L7.84 10.83C7.84 10.49 8.13 10.2 8.47 10.2C8.81 10.2 9.09 10.49 9.09 10.83L9.09 13.33Z" fill="url(#paint_linear_8_57_0)" fill-opacity="1.000000" fill-rule="nonzero"/>
</svg>
