<svg width="20.000000" height="20.000000" viewBox="0 0 20 20" fill="none" xmlns="http://www.w3.org/2000/svg" xmlns:xlink="http://www.w3.org/1999/xlink">
	<desc>
			Created with Pixso.
	</desc>
	<defs/>
	<g opacity="0.000000"/>
	<g opacity="0.550000">
		<path id="Vector" d="M16 12.5C15.1 12.45 14.16 12.78 13.47 13.47C12.17 14.77 12.17 16.88 13.47 18.19C13.91 18.63 14.45 18.92 15.03 19.06C15.35 19.15 15.68 19.17 16.01 19.15C16.8 19.12 17.58 18.8 18.19 18.2C19.04 17.34 19.34 16.13 19.06 15.04C18.93 14.46 18.63 13.92 18.19 13.48C17.59 12.87 16.8 12.55 16 12.5L16 12.5M17.7 15.81C17.7 15.99 17.63 16.14 17.51 16.25C17.4 16.37 17.25 16.44 17.07 16.44L16.45 16.44L16.45 17.09C16.45 17.26 16.39 17.41 16.27 17.53C16.15 17.65 16 17.71 15.83 17.71C15.49 17.71 15.2 17.43 15.2 17.09L15.2 16.44L14.58 16.44C14.24 16.44 13.95 16.15 13.95 15.81C13.95 15.47 14.24 15.19 14.58 15.19L15.2 15.19L15.2 14.6C15.2 14.25 15.49 13.97 15.83 13.97C16.17 13.97 16.45 14.25 16.45 14.6L16.45 15.19L17.07 15.19C17.42 15.19 17.7 15.47 17.7 15.81L17.7 15.81Z" fill="#7C8DB5" fill-opacity="0.720000" fill-rule="nonzero"/>
	</g>
	<g opacity="0.720000">
		<path id="Vector" d="M13.61 18.3C13.36 18.09 13.14 17.83 12.98 17.54C12.67 17.04 12.5 16.45 12.5 15.83C12.5 13.99 13.99 12.5 15.83 12.5C16.81 12.5 17.7 12.92 18.3 13.6C18.31 13.61 18.31 13.62 18.32 13.62C18.32 13.57 18.33 13.53 18.33 13.49L18.33 6.5C18.33 3.47 16.52 1.66 13.49 1.66L6.5 1.66C6.27 1.66 6.04 1.67 5.83 1.7C3.2 1.95 1.66 3.7 1.66 6.5L1.66 13.49C1.66 16.29 3.2 18.04 5.83 18.29C6.04 18.32 6.27 18.33 6.5 18.33L13.49 18.33C13.54 18.33 13.58 18.32 13.63 18.32C13.63 18.31 13.62 18.31 13.61 18.3L13.61 18.3Z" fill="#7C8DB5" fill-opacity="0.720000" fill-rule="nonzero"/>
	</g>
	<path id="Vector" d="M11.48 4.41C11.21 4.2 10.73 4 9.96 4.21L7.48 4.89C6.74 5.09 6.25 5.71 6.25 6.49L6.25 7.95L6.25 9.75C6.06 9.69 5.85 9.64 5.64 9.64C4.6 9.64 3.77 10.48 3.77 11.5C3.77 12.53 4.61 13.37 5.64 13.37C6.65 13.37 7.49 12.55 7.5 11.54C7.5 11.53 7.51 11.52 7.51 11.51L7.51 8.43L10.82 7.53L10.82 8.93C10.63 8.86 10.42 8.81 10.2 8.81C9.16 8.81 8.33 9.65 8.33 10.68C8.33 11.71 9.17 12.55 10.2 12.55C11.21 12.55 12.05 11.72 12.06 10.7C12.06 10.7 12.07 10.69 12.07 10.67L12.07 6.7L12.07 5.81C12.06 5.18 11.86 4.7 11.48 4.41L11.48 4.41M5.63 12.12C5.29 12.12 5.01 11.85 5.01 11.5C5.01 11.16 5.29 10.89 5.63 10.89C5.97 10.89 6.25 11.16 6.25 11.5C6.25 11.85 5.97 12.12 5.63 12.12L5.63 12.12M10.19 11.29C9.84 11.29 9.57 11.01 9.57 10.67C9.57 10.33 9.84 10.05 10.19 10.05C10.53 10.05 10.8 10.33 10.8 10.67C10.8 11.01 10.53 11.29 10.19 11.29L10.19 11.29Z" fill="#FFFFFF" fill-opacity="1.000000" fill-rule="nonzero"/>
</svg>
