<svg width="10.000000" height="12.000000" viewBox="0 0 10 12" fill="none" xmlns="http://www.w3.org/2000/svg" xmlns:xlink="http://www.w3.org/1999/xlink">
	<desc>
			Created with Pixso.
	</desc>
	<defs/>
	<path id="Path" d="M9.65 7.07C9.61 7.13 9.41 7.37 9.26 7.53L9.17 7.62C7.98 8.95 5.01 10.95 3.5 11.59C3.5 11.6 2.61 11.98 2.18 12L2.13 12C1.47 12 0.86 11.62 0.55 11C0.38 10.67 0.22 9.69 0.21 9.68C0.08 8.8 0 7.46 0 5.99C0 4.44 0.08 3.04 0.24 2.18C0.24 2.17 0.39 1.38 0.49 1.12C0.65 0.74 0.93 0.42 1.29 0.21C1.57 0.07 1.87 0 2.18 0C2.51 0.01 3.12 0.23 3.36 0.33C4.95 0.97 7.99 3.07 9.16 4.35C9.36 4.56 9.57 4.81 9.63 4.86C9.87 5.19 10 5.58 10 6C10 6.38 9.88 6.76 9.65 7.07L9.65 7.07Z" fill="#FFFFFF" fill-opacity="1.000000" fill-rule="nonzero"/>
</svg>
